<svg xmlns="http://www.w3.org/2000/svg" viewBox="0 0 435 156" width="288" height="288"><path d="M0 0 C2.97 0 5.94 0 9 0 C12 3 12 3 12.36076355 5.25895691 C12.35410172 6.1405397 12.34743988 7.0221225 12.34057617 7.93041992 C12.34034958 8.93123093 12.34012299 9.93204193 12.33988953 10.96318054 C12.32440567 12.04138565 12.30892181 13.11959076 12.29296875 14.23046875 C12.28872391 15.33602615 12.28447906 16.44158356 12.28010559 17.5806427 C12.26329437 21.11650812 12.22563685 24.65180645 12.1875 28.1875 C12.17245636 30.58267407 12.1587674 32.97785706 12.14648438 35.37304688 C12.11338285 41.24889185 12.06315893 47.12440542 12 53 C13.134375 52.814375 14.26875 52.62875 15.4375 52.4375 C16.613125 52.293125 17.78875 52.14875 19 52 C20 53 20 53 20.1875 56.3125 C20.01798052 59.64638318 19.75557129 61.25691987 18 64 C16.02 64 14.04 64 12 64 C12 72.25 12 80.5 12 89 C5 90 5 90 2.58691406 88.89526367 C0.4735235 86.37122506 0.53719053 84.94212834 0.609375 81.67578125 C0.62226563 80.64775391 0.63515625 79.61972656 0.6484375 78.56054688 C0.69871094 76.95276367 0.69871094 76.95276367 0.75 75.3125 C0.76804687 74.22904297 0.78609375 73.14558594 0.8046875 72.02929688 C0.85185593 69.35248842 0.92359967 66.67613366 1 64 C-7.415 64.495 -7.415 64.495 -16 65 C-16 65.66 -16 66.32 -16 67 C-16.3001005 74.23242198 -17.58548485 80.42214813 -22.71484375 85.796875 C-26.52434337 89.17951737 -29.12988628 90.86147306 -34.375 91.25 C-38.24258919 90.98326971 -39.84088314 90.10607791 -43 88 C-46.07636249 87.75631692 -46.07636249 87.75631692 -48.6875 89.5 C-52.65498382 91.29659645 -55.70992648 91.69778304 -60 91 C-61.03125 90.443125 -62.0625 89.88625 -63.125 89.3125 C-64.07375 88.879375 -65.0225 88.44625 -66 88 C-68.03412421 88.92862192 -70.03247172 89.93753473 -72 91 C-77.43124056 91.88339455 -81.25387405 90.82507497 -86 88 C-86.66 87.67 -87.32 87.34 -88 87 C-89.03125 87.639375 -90.0625 88.27875 -91.125 88.9375 C-95.32964199 91.46028519 -98.13589736 91.54917288 -103 91 C-106.58552881 89.36312815 -107.79315055 88.31027417 -110 85 C-111.15956567 80.84157338 -111.11478078 76.80997541 -111.09765625 72.51171875 C-111.0962413 71.80852005 -111.09482635 71.10532135 -111.09336853 70.3808136 C-111.08780109 68.14966456 -111.07525475 65.91861836 -111.0625 63.6875 C-111.05748079 62.16862125 -111.05291862 60.64974091 -111.04882812 59.13085938 C-111.03784236 55.42053988 -111.02060034 51.71027999 -111 48 C-115.02854266 50.2655437 -116.80724224 51.7612558 -118.75 56 C-119.15734375 56.86625 -119.5646875 57.7325 -119.984375 58.625 C-121.63830391 62.49264915 -122.14790536 65.5103001 -122.24609375 69.69140625 C-122.27896484 70.80064453 -122.31183594 71.90988281 -122.34570312 73.05273438 C-122.40700056 75.39638303 -122.46427939 77.74014017 -122.51757812 80.08398438 C-122.55173828 81.19193359 -122.58589844 82.29988281 -122.62109375 83.44140625 C-122.65867798 84.96809937 -122.65867798 84.96809937 -122.69702148 86.52563477 C-123 89 -123 89 -125 91 C-127.875 91.375 -127.875 91.375 -131 91 C-133.375 89 -133.375 89 -135 87 C-135.9075 87.474375 -136.815 87.94875 -137.75 88.4375 C-144.48847524 91.67715156 -151.98139355 92.19133062 -159.1875 90 C-165.07274387 87.5050386 -169.59231529 81.83145654 -172 76 C-174.11369935 65.48264114 -172.68211357 55.13717164 -167 46 C-163.42766832 40.81435724 -160.29198181 38.51754428 -154.125 37.125 C-149.78779825 36.72325541 -146.80151799 37.83835252 -143 40 C-139.57912116 42.96476166 -139.38407628 46.592856 -138.8203125 50.87890625 C-139 53 -139 53 -140.29296875 54.765625 C-142.81349812 56.58825036 -144.98086397 56.20127574 -148 56 C-148.99 53.69 -149.98 51.38 -151 49 C-152.91466367 49.12177688 -152.91466367 49.12177688 -155 50 C-158.76955315 55.16568394 -159.16947931 59.65017629 -159.25 65.9375 C-159.27578125 67.14277344 -159.3015625 68.34804687 -159.328125 69.58984375 C-158.97481343 73.26176041 -158.20915049 75.0845586 -156 78 C-152.97147383 79.85076599 -151.12618389 80.00229425 -147.5625 79.9375 C-143.41141781 78.84510995 -140.70085505 77.2876068 -138 74 C-134.65452187 67.12010633 -134.590172 60.96169615 -134.671875 53.3984375 C-134.67374817 52.20320465 -134.67562134 51.0079718 -134.67755127 49.77651978 C-134.68424955 47.26016431 -134.69811947 44.74381887 -134.71875 42.22753906 C-134.74995327 38.3807606 -134.75973088 34.53439262 -134.765625 30.6875 C-134.77479423 28.23697418 -134.78516974 25.78645252 -134.796875 23.3359375 C-134.80112488 22.18894379 -134.80537476 21.04195007 -134.80975342 19.86019897 C-134.81936096 18.78533234 -134.82896851 17.7104657 -134.83886719 16.60302734 C-134.84569519 15.66341156 -134.85252319 14.72379578 -134.85955811 13.75570679 C-134.94940592 10.89758617 -134.94940592 10.89758617 -135.5725708 7.71231079 C-135.78414825 6.36971695 -135.78414825 6.36971695 -136 5 C-134.1496801 3.1496801 -131.57527918 3.70859868 -129.10546875 3.57421875 C-125.94989885 4.21235812 -124.95205352 5.45050662 -123 8 C-122.58217401 10.87694498 -122.39523722 13.38706996 -122.390625 16.265625 C-122.37408875 17.05902283 -122.35755249 17.85242065 -122.34051514 18.66986084 C-122.29204384 21.19665269 -122.27066713 23.72284281 -122.25 26.25 C-122.22183943 27.96617609 -122.19191188 29.68232416 -122.16015625 31.3984375 C-122.08628564 35.59890878 -122.03670613 39.7990462 -122 44 C-121.22140625 43.20464844 -120.4428125 42.40929687 -119.640625 41.58984375 C-116.93617825 38.93740559 -115.67699903 37.75211344 -112 37 C-107.76632572 37.36651951 -104.15388139 37.91823619 -101 40.875 C-98.86304264 45.41603438 -98.79809831 49.87410346 -98.68359375 54.828125 C-98.66281265 55.57713074 -98.64203156 56.32613647 -98.62062073 57.09783936 C-98.55542912 59.48180288 -98.49638217 61.86587312 -98.4375 64.25 C-98.39428584 65.86980254 -98.35067063 67.48959443 -98.30664062 69.109375 C-98.19977904 73.07280832 -98.09842667 77.0363486 -98 81 C-94.06427442 77.28329588 -92.42618166 75.46350911 -92 70 C-90.60102104 59.61154238 -88.61207585 51.61207585 -81 44 C-74.51021789 39.43311629 -67.55574744 36.66867291 -59.5625 37.25 C-57 38 -57 38 -55 40 C-54.875 43.625 -54.875 43.625 -55 47 C-55.78503906 47.08636719 -56.57007813 47.17273438 -57.37890625 47.26171875 C-63.9124858 48.13553491 -69.44754296 48.92617219 -74 54 C-78.42253699 60.82373038 -79.97894687 67.91363062 -79 76 C-77.47479878 78.78198446 -77.47479878 78.78198446 -75 80 C-72.83333333 80.16666667 -72.83333333 80.16666667 -71 79 C-68.90943355 75.76711301 -68.77444687 73.19349572 -68.83984375 69.39453125 C-68.85080078 68.32912109 -68.86175781 67.26371094 -68.87304688 66.16601562 C-68.90495117 64.50602539 -68.90495117 64.50602539 -68.9375 62.8125 C-68.9717637 60.61074001 -69.00194258 58.40891131 -69.02734375 56.20703125 C-69.04531006 55.2322583 -69.06327637 54.25748535 -69.08178711 53.25317383 C-69 51 -69 51 -68 50 C-60.64964932 49.52578383 -60.64964932 49.52578383 -58.40429688 51.16479492 C-56.46020119 53.70543596 -56.58524327 55.51393665 -56.5234375 58.69140625 C-56.4925 59.80064453 -56.4615625 60.90988281 -56.4296875 62.05273438 C-56.41164063 63.21095703 -56.39359375 64.36917969 -56.375 65.5625 C-56.32412797 67.85555657 -56.26962643 70.14853643 -56.2109375 72.44140625 C-56.19337402 73.45920166 -56.17581055 74.47699707 -56.15771484 75.52563477 C-56.16109635 78.00231814 -56.16109635 78.00231814 -55 80 C-53.68 80 -52.36 80 -51 80 C-48.32681305 73.69891646 -46.76889608 67.83360317 -46.5859375 60.97265625 C-46.54726562 59.68681641 -46.50859375 58.40097656 -46.46875 57.07617188 C-46.43730501 55.73828582 -46.40605741 54.40039511 -46.375 53.0625 C-46.33675658 51.69724244 -46.2977013 50.33200736 -46.2578125 48.96679688 C-46.16390063 45.6446646 -46.07822213 42.32253259 -46 39 C-38.62542925 38.63731619 -38.62542925 38.63731619 -36.26586914 40.00561523 C-34.26624953 43.15602846 -34.55914098 46.47965548 -34.55859375 50.09765625 C-34.53878197 51.28276039 -34.53878197 51.28276039 -34.51856995 52.49180603 C-34.47766438 55.01540674 -34.45599596 57.53864262 -34.4375 60.0625 C-34.41373664 62.58981749 -34.38566729 65.11679007 -34.34571838 67.64390564 C-34.32130597 69.21634396 -34.30649249 70.78896582 -34.30210876 72.36158752 C-34.39515101 76.64308353 -34.39515101 76.64308353 -32 80 C-28.90988056 77.41734886 -27.78372082 74.51043341 -26.3125 70.8125 C-25.87550781 69.72582031 -25.43851563 68.63914062 -24.98828125 67.51953125 C-24.66214844 66.68808594 -24.33601562 65.85664062 -24 65 C-24.48597656 64.56816406 -24.97195312 64.13632813 -25.47265625 63.69140625 C-27 62 -27 62 -27.4375 58.9375 C-27.05490644 55.49415794 -26.54439929 53.6884611 -25.1875 50.625 C-20.08157525 38.54822055 -19.64413798 25.33710934 -19.2902832 12.40356445 C-19.26409912 11.45570068 -19.23791504 10.50783691 -19.2109375 9.53125 C-19.19337402 8.68111328 -19.17581055 7.83097656 -19.15771484 6.95507812 C-19 5 -19 5 -18 4 C-14.24086785 3.48739107 -12.42091359 3.75294202 -9.125 5.6875 C-4.23192083 13.31494694 -7.14808501 24.11206878 -8.3125 32.6875 C-8.42980469 33.55375 -8.54710937 34.42 -8.66796875 35.3125 C-9.57654391 41.42220441 -11.11642395 47.11712242 -13 53 C-8.38 53 -3.76 53 1 53 C0.67 35.51 0.34 18.02 0 0 Z " transform="translate(257 43)" fill="#fe640b" class="svgShape color000000-0 selectable" data-darkreader-inline-fill="" style="--darkreader-inline-fill: var(--darkreader-background-fe640b, #c64901);"></path><path fill="#C78750" d="M0 0 C3.7248672 0.10955492 5.74629467 1.32098567 8.3125 3.875 C12.08048962 8.4910282 11.55449308 13.32158011 11 19 C11.66 17.68 12.32 16.36 13 15 C13.66 15 14.32 15 15 15 C16.64299944 18.28599889 16.6641241 21.4639879 16 25 C14.28681863 28.23156952 12.24303959 31.11609195 10 34 C11.85455737 35.85455737 15.00144914 35.52687506 17.5 35.8125 C23.45775425 36.62187826 28.86965819 37.74102357 34 41 C37.51846265 48.03692531 33.88605906 61.23514995 32.58203125 68.7734375 C30.85962986 79.20255035 29.86965009 89.66313191 28.9375 100.1875 C28.62045603 103.76502032 28.29513394 107.34164972 27.96484375 110.91796875 C27.86320168 112.1118647 27.86320168 112.1118647 27.75950623 113.32987976 C26.55817172 126.3082707 26.55817172 126.3082707 22.8125 130.375 C13.05717142 136.01141207 0.51451096 136.17348939 -10.25 133.8125 C-15.35589171 132.4128154 -18.49006096 130.98425512 -22 127 C-22.84362912 123.74092528 -23.21327414 120.47073033 -23.54077148 117.12475586 C-23.63434433 116.18284897 -23.72791718 115.24094208 -23.82432556 114.27049255 C-23.97122581 112.7579464 -23.97122581 112.7579464 -24.12109375 111.21484375 C-24.33651379 109.05272693 -24.55201108 106.8906178 -24.76757812 104.72851562 C-25.10238851 101.34103669 -25.43593836 97.95344076 -25.76782227 94.56567383 C-26.09047637 91.2817133 -26.41805561 87.99827023 -26.74609375 84.71484375 C-26.84200302 83.72064926 -26.93791229 82.72645477 -27.03672791 81.70213318 C-27.6438544 75.65144396 -28.49458777 69.68707999 -29.55241394 63.69837952 C-30.22496989 59.64371524 -30.60366861 55.59853205 -30.875 51.5 C-30.9471875 50.72914062 -31.019375 49.95828125 -31.09375 49.1640625 C-31.32508433 45.64534559 -31.36202757 43.52650848 -29.33203125 40.57421875 C-22.92839124 36.25149358 -14.53256075 35.61742301 -7 35 C-6.979375 33.700625 -6.95875 32.40125 -6.9375 31.0625 C-6.22055485 24.1972071 -1.71160181 19.71160181 3 15 C3.45756712 10.05827512 3.12713765 7.77862466 0 4 C0 2.68 0 1.36 0 0 Z M9 21 C9 24 9 24 9 24 Z M5 27 C2.51181022 30.6698479 2.51181022 30.6698479 2 35 C3.32 34.67 4.64 34.34 6 34 C6 31.69 6 29.38 6 27 C5.67 27 5.34 27 5 27 Z " transform="translate(39 5)" class="svgShape colorc78750-1 selectable" data-darkreader-inline-fill="" style="--darkreader-inline-fill: var(--darkreader-background-c78750, #915c2f);"></path><path d="M0 0 C2.75 2.5625 2.75 2.5625 5 5 C7.36301205 5.2211025 7.36301205 5.2211025 9.75 2.5625 C12.78454255 -0.01649379 14.90821885 -1 19 -1 C25.2729779 0.986443 25.2729779 0.986443 27.17944336 3.64428711 C28.31719599 6.91062902 28.33730691 10.08377298 28.37890625 13.50390625 C28.39590073 14.22360092 28.4128952 14.94329559 28.43040466 15.68479919 C28.48338632 17.97727768 28.52376201 20.26974011 28.5625 22.5625 C28.60649662 24.85873903 28.6532464 27.15484178 28.70530701 29.45091248 C28.73714215 30.87761663 28.76406979 32.3044407 28.78553772 33.7313385 C28.84841158 36.74944788 29.03778716 39.11336148 30 42 C32.64247288 41.03109328 33.7796497 40.41750584 35.11328125 37.890625 C36.20577278 34.32919887 36.24335896 31.16019922 36.3125 27.4375 C36.69745872 18.46405036 38.54905975 9.85777011 45.25 3.375 C49.13087966 0.53183382 53.18505083 -0.88090232 58 -1 C61.7657274 -0.28756509 64.32733853 1.10206783 66.66796875 4.2265625 C69.32473588 9.75824772 68.88392903 16.46428386 67.4140625 22.34375 C64.44274346 29.21322154 58.08012875 33.94658084 52 38 C53.98313153 40.85075158 55.33839755 41.07766501 58.8125 41.875 C63.08117981 42.21117808 65.52808015 41.7003821 69 39 C70.95849405 35.78962765 72.46157432 32.42599762 74 29 C74.97516468 27.31868158 75.96004568 25.64203313 77 24 C82.875 24.875 82.875 24.875 84 26 C84.72518043 34.12202086 82.21170865 39.55233652 77.875 46.3125 C72.75108277 51.10224871 66.86678466 53.18971718 59.875 53.4375 C52.71278232 53.11143358 47.3247647 50.82556801 42 46 C41.29423828 46.63228516 41.29423828 46.63228516 40.57421875 47.27734375 C39.95160156 47.82519531 39.32898438 48.37304688 38.6875 48.9375 C38.07261719 49.48277344 37.45773437 50.02804688 36.82421875 50.58984375 C33.12698315 53.44787812 29.50767376 53.31087405 25 53 C21.60792889 51.61233455 20.30668603 50.50129133 18.39135742 47.37060547 C16.81829116 43.55980484 16.52579586 40.25132422 16.48828125 36.1953125 C16.47033005 35.4713327 16.45237885 34.74735291 16.43388367 34.00143433 C16.38008862 31.70934723 16.34598598 29.41746459 16.3125 27.125 C16.27929951 25.56247173 16.24480734 23.99997034 16.20898438 22.4375 C16.12438077 18.62514831 16.05742441 14.812854 16 11 C15.01 11 14.02 11 13 11 C12.32881486 12.33106451 11.66322656 13.66495215 11 15 C10.65404785 15.69416016 10.3080957 16.38832031 9.95166016 17.10351562 C6.73419494 24.24401726 6.40986367 30.74283259 6.375 38.5 C6.34958398 40.82302432 6.31615512 43.14597942 6.2734375 45.46875 C6.26747559 46.48388672 6.26151367 47.49902344 6.25537109 48.54492188 C6 51 6 51 4 53 C-0.05261287 53.34490322 -1.54754176 53.30163882 -5 51 C-5.39872742 49.20297241 -5.39872742 49.20297241 -5.43237305 47.00927734 C-5.45216721 46.18857758 -5.47196136 45.36787781 -5.49235535 44.52230835 C-5.49874527 43.63580597 -5.50513519 42.74930359 -5.51171875 41.8359375 C-5.53864555 40.47512558 -5.53864555 40.47512558 -5.56611633 39.08682251 C-5.62039427 36.18292928 -5.65417073 33.279202 -5.6875 30.375 C-5.72065767 28.40883098 -5.75514587 26.44268391 -5.79101562 24.4765625 C-5.87613065 19.65116112 -5.94285806 14.82581045 -6 10 C-9.43364832 12.64425604 -11.61270507 14.44838881 -13.25 18.5 C-13.56453125 19.2528125 -13.8790625 20.005625 -14.203125 20.78125 C-15.6406169 24.78367844 -16.14119664 28.31014754 -16.24609375 32.5703125 C-16.27896484 33.63121094 -16.31183594 34.69210938 -16.34570312 35.78515625 C-16.40711276 38.01942186 -16.46437631 40.25380513 -16.51757812 42.48828125 C-16.55173828 43.54660156 -16.58589844 44.60492188 -16.62109375 45.6953125 C-16.6461499 46.66484863 -16.67120605 47.63438477 -16.69702148 48.63330078 C-17 51 -17 51 -19 53 C-24.2420497 53.55766486 -24.2420497 53.55766486 -26.66339111 51.77615356 C-28.3868956 49.48587353 -28.40048846 48.12033584 -28.44824219 45.26904297 C-28.47126404 44.31150116 -28.49428589 43.35395935 -28.51800537 42.36740112 C-28.52753235 41.33608063 -28.53705933 40.30476013 -28.546875 39.2421875 C-28.56719788 38.18339386 -28.58752075 37.12460022 -28.60845947 36.03372192 C-28.64867421 33.79619445 -28.68183733 31.55853082 -28.70849609 29.32080078 C-28.74992285 25.88140562 -28.81251638 22.44290142 -28.87890625 19.00390625 C-28.91529865 16.83335371 -28.950496 14.66278073 -28.984375 12.4921875 C-29.0019989 11.45681854 -29.0196228 10.42144958 -29.03778076 9.35470581 C-29.04819397 8.40346832 -29.05860718 7.45223083 -29.06933594 6.47216797 C-29.08027283 5.63072235 -29.09120972 4.78927673 -29.10247803 3.92233276 C-29 2 -29 2 -28 1 C-22.80145059 0.48866727 -22.80145059 0.48866727 -20 1 C-17.5 3.5 -17.5 3.5 -16 6 C-15.195625 4.824375 -15.195625 4.824375 -14.375 3.625 C-10.25517818 -0.92848728 -5.81389241 -1.85549758 0 0 Z M54 10 C50.52803994 12.68287823 49.9050401 15.82289183 49 20 C48.92596322 22.33215844 48.90484114 24.66860788 49 27 C53.47961107 23.68898313 55.82052918 21.66145995 57 16 C57.16857483 13.24934768 57.16857483 13.24934768 57 11 C56.01 10.67 55.02 10.34 54 10 Z " transform="translate(341 81)" fill="#fe640b" class="svgShape color000000-2 selectable" data-darkreader-inline-fill="" style="--darkreader-inline-fill: var(--darkreader-background-fe640b, #c64901);"></path><path fill="#E5BF98" d="M0 0 C3.7248672 0.10955492 5.74629467 1.32098567 8.3125 3.875 C12.08048962 8.4910282 11.55449308 13.32158011 11 19 C11.66 17.68 12.32 16.36 13 15 C13.66 15 14.32 15 15 15 C16.67477323 18.34954647 16.71829641 21.40851794 16 25 C14.06048762 28.95702124 11.87492838 32.65104703 9 36 C8.01 36 7.02 36 6 36 C5.505 32.535 5.505 32.535 5 29 C3.02 32.465 3.02 32.465 1 36 C0.34 36 -0.32 36 -1 36 C-1 36.99 -1 37.98 -1 39 C0.14855469 38.97679687 1.29710938 38.95359375 2.48046875 38.9296875 C11.89754915 38.79960048 20.73035118 39.1657232 30 41 C30.495 42.98 30.495 42.98 31 45 C31.66 45 32.32 45 33 45 C32.34 52.92 31.68 60.84 31 69 C30.34 69 29.68 69 29 69 C29 65.37 29 61.74 29 58 C27.535625 58.474375 26.07125 58.94875 24.5625 59.4375 C16.56822074 62.0271961 8.33587122 62.18108779 0 62.1875 C-0.83789062 62.19974609 -1.67578125 62.21199219 -2.5390625 62.22460938 C-8.31463799 62.23802015 -13.4019598 61.42772598 -19 60 C-19 60.66 -19 61.32 -19 62 C-9.1 62.66 0.8 63.32 11 64 C11 72.81079577 10.8902521 81.17699638 10 89.875 C9.90460937 90.86113281 9.80921875 91.84726563 9.7109375 92.86328125 C9.47991221 95.24284174 9.24294115 97.62163195 9 100 C8.67 100 8.34 100 8 100 C7.67 92.41 7.34 84.82 7 77 C-1.09204062 75.46453677 -1.09204062 75.46453677 -5 77 C-5.33 77.66 -5.66 78.32 -6 79 C-5.34 79 -4.68 79 -4 79 C-4 94.18 -4 109.36 -4 125 C-4.66 125 -5.32 125 -6 125 C-6.495 106.685 -6.495 106.685 -7 88 C-7.66 88 -8.32 88 -9 88 C-8.75443359 89.77697266 -8.75443359 89.77697266 -8.50390625 91.58984375 C-7.76534257 98.23691685 -7.89308587 104.88329881 -7.9375 111.5625 C-7.94201172 112.85736328 -7.94652344 114.15222656 -7.95117188 115.48632812 C-7.96287399 118.657601 -7.97926887 121.82877546 -8 125 C-11.375 124.6875 -11.375 124.6875 -15 124 C-16.9383875 121.09241874 -17.27969202 120.27708526 -17.5625 117.00683594 C-17.63597656 116.20880554 -17.70945312 115.41077515 -17.78515625 114.58856201 C-17.89150391 113.29948944 -17.89150391 113.29948944 -18 111.984375 C-18.12181641 110.65058807 -18.12181641 110.65058807 -18.24609375 109.28985596 C-18.50546945 106.44389348 -18.75380325 103.59713078 -19 100.75 C-19.24678963 97.91722133 -19.4961933 95.08479764 -19.75390625 92.25299072 C-19.91408229 90.49165018 -20.06805507 88.72973085 -20.21484375 86.96722412 C-20.76003983 80.95228264 -22.08940485 75.73178544 -24 70 C-24.99 70 -25.98 70 -27 70 C-28.3066568 66.08002959 -28.18421613 62.33513617 -28.1875 58.25 C-28.19974609 57.46367188 -28.21199219 56.67734375 -28.22460938 55.8671875 C-28.23702246 50.88540166 -27.97236234 46.61402482 -26 42 C-19.9357169 38.38880364 -11.86632943 38.59785055 -5 39 C-5.350625 38.154375 -5.70125 37.30875 -6.0625 36.4375 C-7.20060295 32.26445586 -7.20246059 30.17324557 -6 26 C-3.36984797 22.00216892 -0.38199268 18.38199268 3 15 C3.45756712 10.05827512 3.12713765 7.77862466 0 4 C0 2.68 0 1.36 0 0 Z M9 21 C9 24 9 24 9 24 Z " transform="translate(39 5)" class="svgShape colore5bf98-3 selectable" data-darkreader-inline-fill="" style="--darkreader-inline-fill: var(--darkreader-background-e5bf98, #70471c);"></path><path fill="#DFE7E8" d="M0 0 C3.7248672 0.10955492 5.74629467 1.32098567 8.3125 3.875 C12.08048962 8.4910282 11.55449308 13.32158011 11 19 C11.66 17.68 12.32 16.36 13 15 C13.66 15 14.32 15 15 15 C16.67477323 18.34954647 16.71829641 21.40851794 16 25 C14.06048762 28.95702124 11.87492838 32.65104703 9 36 C8.01 36 7.02 36 6 36 C5.505 32.535 5.505 32.535 5 29 C3.02 32.465 3.02 32.465 1 36 C0.34 36 -0.32 36 -1 36 C-1 36.99 -1 37.98 -1 39 C0.19496094 38.97679687 1.38992187 38.95359375 2.62109375 38.9296875 C21.73755952 38.66858847 21.73755952 38.66858847 30 43 C29.875 44.875 29.875 44.875 29 47 C23.86562498 49.33042416 18.99336684 49.29144057 13.47265625 49.265625 C12.56551376 49.26753845 11.65837128 49.2694519 10.72373962 49.27142334 C8.81167319 49.27277989 6.89959739 49.26912059 4.98754883 49.26074219 C2.07547099 49.25004764 -0.83598824 49.26064913 -3.74804688 49.2734375 C-5.61198052 49.27211557 -7.47591378 49.26955248 -9.33984375 49.265625 C-10.20359116 49.26967346 -11.06733856 49.27372192 -11.95726013 49.27789307 C-17.0179938 49.23903144 -21.20203528 48.6291159 -26 47 C-26.33 45.68 -26.66 44.36 -27 43 C-19.38989953 39.56799391 -13.33737789 38.85429825 -5 39 C-5.350625 38.154375 -5.70125 37.30875 -6.0625 36.4375 C-7.20060295 32.26445586 -7.20246059 30.17324557 -6 26 C-3.36984797 22.00216892 -0.38199268 18.38199268 3 15 C3.45756712 10.05827512 3.12713765 7.77862466 0 4 C0 2.68 0 1.36 0 0 Z M9 21 C9 24 9 24 9 24 Z " transform="translate(39 5)" class="svgShape colordfe7e8-4 selectable" data-darkreader-inline-fill="" style="--darkreader-inline-fill: var(--darkreader-background-dfe7e8, #2b3a3c);"></path><path fill="#D6A06B" d="M0 0 C9.57 0.66 19.14 1.32 29 2 C29 10.81079577 28.8902521 19.17699638 28 27.875 C27.85691406 29.35419922 27.85691406 29.35419922 27.7109375 30.86328125 C27.47991221 33.24284174 27.24294115 35.62163195 27 38 C26.67 38 26.34 38 26 38 C25.505 26.615 25.505 26.615 25 15 C16.90795938 13.46453677 16.90795938 13.46453677 13 15 C12.67 15.66 12.34 16.32 12 17 C12.66 17 13.32 17 14 17 C14 32.18 14 47.36 14 63 C13.34 63 12.68 63 12 63 C11.67 50.79 11.34 38.58 11 26 C10.34 26 9.68 26 9 26 C9.16371094 27.18464844 9.32742187 28.36929688 9.49609375 29.58984375 C10.23465743 36.23691685 10.10691413 42.88329881 10.0625 49.5625 C10.05798828 50.85736328 10.05347656 52.15222656 10.04882812 53.48632812 C10.03712601 56.657601 10.02073113 59.82877546 10 63 C7.69 62.67 5.38 62.34 3 62 C3.33 54.08 3.66 46.16 4 38 C3.34 38 2.68 38 2 38 C1.65639572 34.29254641 1.32712945 30.58394063 1 26.875 C0.90460937 25.84761719 0.80921875 24.82023437 0.7109375 23.76171875 C0.01400409 15.74698452 0 8.12109826 0 0 Z " transform="translate(21 67)" class="svgShape colord6a06b-5 selectable" data-darkreader-inline-fill="" style="--darkreader-inline-fill: var(--darkreader-background-d6a06b, #865525);"></path><path fill="#B6A593" d="M0 0 C0.66 1.32 1.32 2.64 2 4 C0.98679687 4.12117188 -0.02640625 4.24234375 -1.0703125 4.3671875 C-2.4219151 4.53613783 -3.77347542 4.70542669 -5.125 4.875 C-5.79015625 4.95363281 -6.4553125 5.03226563 -7.140625 5.11328125 C-11.30378644 5.64388026 -15.06671292 6.54186554 -19 8 C-20.20484722 13.63526965 -20.1129643 19.14536115 -20.0625 24.875 C-20.05798828 25.84953125 -20.05347656 26.8240625 -20.04882812 27.828125 C-20.03710906 30.21881434 -20.02070219 32.6093744 -20 35 C-19.01 35 -18.02 35 -17 35 C-14.06664926 37.96537326 -13.52408179 40.52046573 -13.12109375 44.59375 C-13.00556152 45.6979126 -12.8900293 46.8020752 -12.77099609 47.93969727 C-12.66094238 49.11459717 -12.55088867 50.28949707 -12.4375 51.5 C-12.31455566 52.70003662 -12.19161133 53.90007324 -12.06494141 55.13647461 C-11.69670691 58.75648447 -11.34580929 62.3777857 -11 66 C-10.71125008 68.98192457 -10.42160911 71.9637494 -10.12915039 74.9453125 C-9.96292662 76.65705004 -9.80174812 78.36928695 -9.64624023 80.08203125 C-9.33475653 84.17163009 -9.33475653 84.17163009 -8 88 C-6.11235097 88.68472665 -6.11235097 88.68472665 -3.9375 89.125 C-3.20402344 89.29257813 -2.47054688 89.46015625 -1.71484375 89.6328125 C-0.86599609 89.81457031 -0.86599609 89.81457031 0 90 C0 90.66 0 91.32 0 92 C-8.35010941 90.66958425 -8.35010941 90.66958425 -11.0625 87.875 C-11.371875 87.25625 -11.68125 86.6375 -12 86 C-12.0615942 89.41136476 -12.0615942 89.41136476 -11 93 C-1.58851034 98.3272583 10.61000205 98.27543112 21.078125 96.46875 C25.3284259 95.17395635 27.72854916 93.78117271 30 90 C30.64716844 87.50666042 30.64716844 87.50666042 30.87890625 84.765625 C30.99435791 83.72760742 31.10980957 82.68958984 31.22875977 81.62011719 C31.33889404 80.50797852 31.44902832 79.39583984 31.5625 78.25 C31.68616943 77.1043457 31.80983887 75.95869141 31.93725586 74.77832031 C32.8856313 65.7820198 33.65541887 56.76874095 34.26586914 47.74316406 C34.54211088 43.97427435 34.79030718 40.62742735 35.9921875 37.03125 C37.54097497 32.37288149 37.69745751 27.6256979 38.0625 22.75 C38.21643826 20.76534139 38.37381717 18.78094569 38.53515625 16.796875 C38.600979 15.92385742 38.66680176 15.05083984 38.73461914 14.15136719 C39 12 39 12 40 10 C39.34 10 38.68 10 38 10 C37.505 8.515 37.505 8.515 37 7 C26.67716783 5.1214634 16.46630933 4.44637458 6 4 C6 3.01 6 2.02 6 1 C16.11572369 -1.16765508 28.49528937 -0.17240687 38 4 C40.30859375 5.6328125 40.30859375 5.6328125 42 8 C42.21834881 10.70937041 42.20429119 12.8954894 41.9375 15.5625 C41.87545883 16.27488327 41.81341766 16.98726654 41.74949646 17.72123718 C41.24383553 23.11890902 40.48186008 28.42356998 39.5703125 33.765625 C37.85956039 44.19746915 36.86973142 54.66221361 35.9375 65.1875 C35.62045603 68.76502032 35.29513394 72.34164972 34.96484375 75.91796875 C34.86320168 77.1118647 34.86320168 77.1118647 34.75950623 78.32987976 C33.55817172 91.3082707 33.55817172 91.3082707 29.8125 95.375 C20.05717142 101.01141207 7.51451096 101.17348939 -3.25 98.8125 C-8.35589171 97.4128154 -11.49006096 95.98425512 -15 92 C-15.84362912 88.74092528 -16.21327414 85.47073033 -16.54077148 82.12475586 C-16.63434433 81.18284897 -16.72791718 80.24094208 -16.82432556 79.27049255 C-16.97122581 77.7579464 -16.97122581 77.7579464 -17.12109375 76.21484375 C-17.33651379 74.05272693 -17.55201108 71.8906178 -17.76757812 69.72851562 C-18.10238851 66.34103669 -18.43593836 62.95344076 -18.76782227 59.56567383 C-19.09047637 56.2817133 -19.41805561 52.99827023 -19.74609375 49.71484375 C-19.84200302 48.72064926 -19.93791229 47.72645477 -20.03672791 46.70213318 C-20.6438544 40.65144396 -21.49458777 34.68707999 -22.55241394 28.69837952 C-23.22496989 24.64371524 -23.60366861 20.59853205 -23.875 16.5 C-23.9471875 15.72914062 -24.019375 14.95828125 -24.09375 14.1640625 C-24.32508433 10.64534559 -24.36202757 8.52650848 -22.33203125 5.57421875 C-15.92839124 1.25149358 -7.53256075 0.61742301 0 0 Z " transform="translate(32 40)" class="svgShape colorb6a593-6 selectable" data-darkreader-inline-fill="" style="--darkreader-inline-fill: var(--darkreader-background-b6a593, #645443);"></path><path fill="#CD9258" d="M0 0 C0.79664063 0.09023437 1.59328125 0.18046875 2.4140625 0.2734375 C4.375 0.625 4.375 0.625 5.375 1.625 C5.53360886 3.02494483 5.62633503 4.43244614 5.69140625 5.83984375 C5.73338135 6.74210693 5.77535645 7.64437012 5.81860352 8.57397461 C5.85783936 9.56018799 5.8970752 10.54640137 5.9375 11.5625 C5.9799585 12.57127197 6.02241699 13.58004395 6.06616211 14.61938477 C6.52215757 26.61931348 6.46151401 38.61877837 6.375 50.625 C1.755 50.625 -2.865 50.625 -7.625 50.625 C-7.295 35.115 -6.965 19.605 -6.625 3.625 C-7.285 3.625 -7.945 3.625 -8.625 3.625 C-8.295 2.635 -7.965 1.645 -7.625 0.625 C-4.56689824 -0.39436725 -3.12698793 -0.37686825 0 0 Z " transform="translate(41.625 80.375)" class="svgShape colorcd9258-7 selectable" data-darkreader-inline-fill="" style="--darkreader-inline-fill: var(--darkreader-background-cd9258, #8e5c2b);"></path><path fill="#EFEFF0" d="M0 0 C3.7248672 0.10955492 5.74629467 1.32098567 8.3125 3.875 C12.08048962 8.4910282 11.55449308 13.32158011 11 19 C11.66 17.68 12.32 16.36 13 15 C13.66 15 14.32 15 15 15 C16.67477323 18.34954647 16.71829641 21.40851794 16 25 C14.06048762 28.95702124 11.87492838 32.65104703 9 36 C8.01 36 7.02 36 6 36 C5.67 33.69 5.34 31.38 5 29 C4.401875 30.134375 3.80375 31.26875 3.1875 32.4375 C1.375 35.875 1.375 35.875 -2 37 C-4.125 36.75 -4.125 36.75 -6 36 C-7.22530177 32.3240947 -7.26576628 29.61746319 -6 26 C-3.38477363 21.99522979 -0.37991602 18.37991602 3 15 C3.45756712 10.05827512 3.12713765 7.77862466 0 4 C0 2.68 0 1.36 0 0 Z M9 21 C9 24 9 24 9 24 Z " transform="translate(39 5)" class="svgShape colorefeff0-8 selectable" data-darkreader-inline-fill="" style="--darkreader-inline-fill: var(--darkreader-text-efeff0, #bcc8f0);"></path><path fill="#3D3D3D" d="M0 0 C8.4 2.8 8.4 2.8 10 6 C9.95822899 14.6779273 9.05973725 23.23115591 7.58203125 31.7734375 C5.85962986 42.20255035 4.86965009 52.66313191 3.9375 63.1875 C3.62045603 66.76502032 3.29513394 70.34164972 2.96484375 73.91796875 C2.86320168 75.1118647 2.86320168 75.1118647 2.75950623 76.32987976 C1.55817172 89.3082707 1.55817172 89.3082707 -2.1875 93.375 C-11.96848423 99.02623533 -24.52113805 99.15902465 -35.3125 96.8125 C-40.26899449 95.48566492 -42.91385137 94.07812498 -46 90 C-45.42507812 90.29648438 -44.85015625 90.59296875 -44.2578125 90.8984375 C-33.65114153 96.07331849 -19.94850043 97.14713455 -8.5625 93.75 C-5.00364635 92.00179119 -3.96811378 91.2762224 -2 88 C-1.35283156 85.50666042 -1.35283156 85.50666042 -1.12109375 82.765625 C-1.00564209 81.72760742 -0.89019043 80.68958984 -0.77124023 79.62011719 C-0.66110596 78.50797852 -0.55097168 77.39583984 -0.4375 76.25 C-0.31383057 75.1043457 -0.19016113 73.95869141 -0.06274414 72.77832031 C0.8856313 63.7820198 1.65541887 54.76874095 2.26586914 45.74316406 C2.54211088 41.97427435 2.79030718 38.62742735 3.9921875 35.03125 C5.54097497 30.37288149 5.69745751 25.6256979 6.0625 20.75 C6.21643826 18.76534139 6.37381717 16.78094569 6.53515625 14.796875 C6.600979 13.92385742 6.66680176 13.05083984 6.73461914 12.15136719 C7 10 7 10 8 8 C7.34 8 6.68 8 6 8 C5.505 6.515 5.505 6.515 5 5 C-5.32283217 3.1214634 -15.53369067 2.44637458 -26 2 C-26 1.01 -26 0.02 -26 -1 C-18.93387513 -4.53306243 -7.32071332 -1.53224232 0 0 Z " transform="translate(64 42)" class="svgShape color3d3d3d-9 selectable" data-darkreader-inline-fill="" style="--darkreader-inline-fill: var(--darkreader-background-3d3d3d, #27273b);"></path><path fill="#B3BBBE" d="M0 0 C1.00999806 3.02999417 1.03004379 4.51223726 0.765625 7.62890625 C0.68787842 8.56943848 0.61013184 9.5099707 0.5300293 10.47900391 C0.43761963 11.49655762 0.34520996 12.51411133 0.25 13.5625 C0.15565674 14.61356934 0.06131348 15.66463867 -0.03588867 16.74755859 C-0.24217735 18.99469683 -0.45285626 21.24143553 -0.66748047 23.48779297 C-0.89118084 25.85060759 -1.10619999 28.21425853 -1.31298828 30.57861328 C-1.62330506 34.09665594 -1.96407486 37.61054841 -2.3125 41.125 C-2.40563477 42.22013916 -2.49876953 43.31527832 -2.59472656 44.44360352 C-3.27236154 50.843656 -3.92000238 54.81808563 -9 59 C-14.60694101 61.02246209 -19.94985273 61.35632411 -25.875 61.3125 C-26.66076416 61.30758545 -27.44652832 61.3026709 -28.25610352 61.29760742 C-34.10062176 61.17995685 -39.75989599 60.84267081 -45 58 C-47.87670461 54.95407747 -47.98097559 53.38682969 -48.1875 49.1875 C-48.125625 48.135625 -48.06375 47.08375 -48 46 C-46 49 -46 49 -44 52 C-38.33695714 54.78495035 -32.16479597 54.33111351 -26 54.3125 C-24.93265625 54.32861328 -23.8653125 54.34472656 -22.765625 54.36132812 C-17.15191154 54.36481924 -12.75977466 54.34280227 -8 51 C-5.98293526 47.97440289 -5.70455262 47.03063243 -5.4375 43.57617188 C-5.36402344 42.68514771 -5.29054687 41.79412354 -5.21484375 40.87609863 C-5.14394531 39.91667358 -5.07304688 38.95724854 -5 37.96875 C-4.91878906 36.98128784 -4.83757813 35.99382568 -4.75390625 34.97644043 C-4.49437154 31.81822748 -4.24586775 28.65930457 -4 25.5 C-3.67647927 21.34288502 -3.34176928 17.18689999 -3 13.03125 C-2.92910156 12.07182495 -2.85820313 11.1123999 -2.78515625 10.12390137 C-2.71167969 9.2328772 -2.63820312 8.34185303 -2.5625 7.42382812 C-2.47162109 6.24826355 -2.47162109 6.24826355 -2.37890625 5.0489502 C-2 3 -2 3 0 0 Z " transform="translate(67 77)" class="svgShape colorb3bbbe-10 selectable" data-darkreader-inline-fill="" style="--darkreader-inline-fill: var(--darkreader-background-b3bbbe, #3a3a59);"></path><path fill="#A19D98" d="M0 0 C1.98 0.33 3.96 0.66 6 1 C6.495 2.98 6.495 2.98 7 5 C7.66 5 8.32 5 9 5 C8.34 12.92 7.68 20.84 7 29 C6.34 29 5.68 29 5 29 C5 24.38 5 19.76 5 15 C0.89578784 13.97394696 -2.76555158 13.89049411 -6.94921875 13.9375 C-8.1072979 13.94317993 -8.1072979 13.94317993 -9.28877258 13.94897461 C-12.57921978 13.965239 -15.86954075 13.99321531 -19.15991211 14.02050781 C-21.56884163 14.03877002 -23.97774995 14.05075769 -26.38671875 14.0625 C-27.11517502 14.07079834 -27.84363129 14.07909668 -28.59416199 14.08764648 C-36.9893416 14.12686149 -44.23539753 13.24701558 -52 10 C-51.67 9.01 -51.34 8.02 -51 7 C-49.32188232 7.24230347 -49.32188232 7.24230347 -47.60986328 7.48950195 C-42.81317444 8.08614399 -38.07105078 8.16171 -33.2421875 8.16796875 C-32.33550323 8.17129715 -31.42881897 8.17462555 -30.49465942 8.17805481 C-28.5903575 8.1830882 -26.68604685 8.18546425 -24.78173828 8.18530273 C-21.87648065 8.18749888 -18.97159738 8.20571901 -16.06640625 8.22460938 C-14.20833462 8.22754217 -12.3502612 8.22952773 -10.4921875 8.23046875 C-9.19823563 8.24124702 -9.19823563 8.24124702 -7.87814331 8.25224304 C-3.18237245 8.23450771 0.58338258 7.80867159 5 6 C5 5.01 5 4.02 5 3 C2.525 2.01 2.525 2.01 0 1 C0 0.67 0 0.34 0 0 Z " transform="translate(63 45)" class="svgShape colora19d98-11 selectable" data-darkreader-inline-fill="" style="--darkreader-inline-fill: var(--darkreader-background-a19d98, #45456a);"></path><path fill="#A37A54" d="M0 0 C0.495 0.99 0.495 0.99 1 2 C0.34 2.99 -0.32 3.98 -1 5 C-1.41090596 7.07919912 -1.41090596 7.07919912 -1.53076172 9.39208984 C-1.5977829 10.27665863 -1.66480408 11.16122742 -1.7338562 12.07260132 C-1.79848053 13.02575226 -1.86310486 13.9789032 -1.9296875 14.9609375 C-2.08673358 16.9792061 -2.24430194 18.99743412 -2.40234375 21.015625 C-2.64159693 24.19715194 -2.87527248 27.37887407 -3.09912109 30.56152344 C-3.31868914 33.63357101 -3.56028947 36.70327955 -3.8046875 39.7734375 C-3.86526337 40.72253998 -3.92583923 41.67164246 -3.98825073 42.64950562 C-4.41922827 47.88569621 -4.87502048 51.33945195 -9 55 C-12.42923401 56.83319285 -15.22582368 57.24262793 -19.08203125 57.1953125 C-20.01337891 57.18886719 -20.94472656 57.18242187 -21.90429688 57.17578125 C-22.86400391 57.15902344 -23.82371094 57.14226562 -24.8125 57.125 C-25.79154297 57.11597656 -26.77058594 57.10695312 -27.77929688 57.09765625 C-30.18645061 57.07417182 -32.59309743 57.0413284 -35 57 C-36.60951543 53.78096915 -36.24234748 50.25161168 -36.31640625 46.7109375 C-36.33718735 45.89251373 -36.35796844 45.07408997 -36.37937927 44.23086548 C-36.44484812 41.61233034 -36.50374726 38.99369361 -36.5625 36.375 C-36.60568776 34.60155193 -36.64930214 32.82811419 -36.69335938 31.0546875 C-36.80052676 26.70322954 -36.90180169 22.35166923 -37 18 C-36.34 18 -35.68 18 -35 18 C-33.9840438 25.84591385 -33.68411257 33.65876935 -33.4375 41.5625 C-33.39431641 42.85736328 -33.35113281 44.15222656 -33.30664062 45.48632812 C-33.20132659 48.65745063 -33.1002357 51.82871291 -33 55 C-26.07 55.495 -26.07 55.495 -19 56 C-19.01160156 53.91558594 -19.02320312 51.83117187 -19.03515625 49.68359375 C-19.04297496 47.64477694 -19.04903568 45.60596185 -19.05493164 43.56713867 C-19.0599327 42.15990439 -19.0667357 40.75267523 -19.07543945 39.34545898 C-19.08769159 37.31232431 -19.0932707 35.27925886 -19.09765625 33.24609375 C-19.10551147 31.41582642 -19.10551147 31.41582642 -19.11352539 29.54858398 C-18.99887643 25.96487943 -18.57327963 22.53687745 -18 19 C-17.67 19 -17.34 19 -17 19 C-17 30.88 -17 42.76 -17 55 C-13.535 54.505 -13.535 54.505 -10 54 C-10 51.69 -10 49.38 -10 47 C-9.67 47 -9.34 47 -9 47 C-7.57860488 41.10486627 -6.76387847 35.2403513 -6.2890625 29.19921875 C-6.23361267 28.50982208 -6.17816284 27.82042542 -6.12103271 27.11013794 C-5.89376129 24.2407433 -5.67231024 21.37128555 -5.47363281 18.49975586 C-5.32390999 16.37717255 -5.1519106 14.25731819 -4.9765625 12.13671875 C-4.88455566 10.88592529 -4.79254883 9.63513184 -4.69775391 8.34643555 C-3.91156591 4.57586912 -2.61683473 2.77202601 0 0 Z " transform="translate(67 75)" class="svgShape colora37a54-12 selectable" data-darkreader-inline-fill="" style="--darkreader-inline-fill: var(--darkreader-background-a37a54, #826243);"></path><path fill="#E3C09D" d="M0 0 C0.99 0.33 1.98 0.66 3 1 C3.06058594 2.04800781 3.12117188 3.09601562 3.18359375 4.17578125 C3.26801738 5.55470048 3.35266447 6.93360605 3.4375 8.3125 C3.47681641 9.00279297 3.51613281 9.69308594 3.55664062 10.40429688 C3.74927415 13.47161535 4.02322717 16.06968152 5 19 C5.33 15.7 5.66 12.4 6 9 C6.33 9 6.66 9 7 9 C7.33937404 13.4578947 7.67039125 17.91637349 8 22.375 C8.09539063 23.62667969 8.19078125 24.87835938 8.2890625 26.16796875 C8.79918597 33.12751043 9.1466168 40.02144775 9 47 C9.66 47 10.32 47 11 47 C11 54.59 11 62.18 11 70 C10.34 70 9.68 70 9 70 C7.31417808 66.62835616 7.42451305 62.79729272 7.09765625 59.08203125 C6.92786981 57.25194056 6.75794344 55.42186284 6.58789062 53.59179688 C6.32452239 50.70650602 6.06326529 47.82104881 5.80493164 44.93530273 C5.5540988 42.15031696 5.29505058 39.36618395 5.03515625 36.58203125 C4.96112076 35.72760941 4.88708527 34.87318756 4.81080627 33.99287415 C4.24383533 27.9770567 2.91151778 22.73455333 1 17 C0.01 17 -0.98 17 -2 17 C-3.01646891 13.95059327 -3.19844676 11.69630097 -3.25 8.5 C-3.27578125 7.5409375 -3.3015625 6.581875 -3.328125 5.59375 C-2.95389709 2.63556747 -2.30935919 1.79886927 0 0 Z " transform="translate(14 58)" class="svgShape colore3c09d-13 selectable" data-darkreader-inline-fill="" style="--darkreader-inline-fill: var(--darkreader-background-e3c09d, #6c461f);"></path><path fill="#C98953" d="M0 0 C0 0.99 0 1.98 0 3 C-2.31 3.66 -4.62 4.32 -7 5 C-7 9.62 -7 14.24 -7 19 C-7.495 18.01 -7.495 18.01 -8 17 C-11.79303725 18.00193437 -14.71536341 18.81024227 -18 21 C-18 16.38 -18 11.76 -18 7 C-19.24394531 7.02320312 -20.48789062 7.04640625 -21.76953125 7.0703125 C-30.71916035 7.18538558 -39.2540285 7.20123328 -48 5 C-48 4.34 -48 3.68 -48 3 C-46.07220703 3.24169922 -46.07220703 3.24169922 -44.10546875 3.48828125 C-39.16409655 4.03388908 -34.28119493 4.19236316 -29.3125 4.1875 C-28.44616943 4.18669434 -27.57983887 4.18588867 -26.68725586 4.18505859 C-17.6114789 4.09946181 -8.41377558 3.68780587 0 0 Z " transform="translate(68 62)" class="svgShape colorc98953-14 selectable" data-darkreader-inline-fill="" style="--darkreader-inline-fill: var(--darkreader-text-c98953, #cd915f);"></path><path d="M0 0 C2.12890625 0.484375 2.12890625 0.484375 4.69140625 2.609375 C6.38310394 5.99277038 6.75086556 7.75261914 6.12890625 11.484375 C4.15498715 14.90077345 2.94352166 16.20705912 -0.80859375 17.484375 C-4.47401516 17.484375 -6.00165398 16.71616148 -8.87109375 14.484375 C-11.21278139 10.97184354 -11.36733052 9.61968144 -10.87109375 5.484375 C-8.29594262 0.33407274 -5.41261742 -0.32101191 0 0 Z " transform="translate(220.871 54.516)" fill="#df8e1d" class="svgShape color000000-15 selectable" data-darkreader-inline-fill="" style="--darkreader-inline-fill: var(--darkreader-text-df8e1d, #e59c36);"></path><path fill="#CB915B" d="M0 0 C0.30518762 1.5561547 0.56775915 3.12070108 0.8125 4.6875 C0.96332031 5.55761719 1.11414063 6.42773438 1.26953125 7.32421875 C1 10 1 10 -1.44970703 12.22558594 C-4.59876304 15.65138265 -4.75257696 17.47711252 -5.07421875 22.06640625 C-5.1289888 22.74114487 -5.18375885 23.41588348 -5.2401886 24.11106873 C-5.41074576 26.26055989 -5.55039422 28.4106405 -5.6875 30.5625 C-5.89122319 33.37696966 -6.10709504 36.19044264 -6.32421875 39.00390625 C-6.37448212 39.68393707 -6.42474548 40.3639679 -6.47653198 41.06460571 C-6.94764837 47.11456407 -7.861237 53.0433389 -9 59 C-11 57 -11 57 -11.15112305 54.62426758 C-11.10511963 53.64095459 -11.05911621 52.6576416 -11.01171875 51.64453125 C-10.96523193 50.55317871 -10.91874512 49.46182617 -10.87084961 48.33740234 C-10.81034424 47.17418457 -10.74983887 46.0109668 -10.6875 44.8125 C-10.63408447 43.63896973 -10.58066895 42.46543945 -10.52563477 41.25634766 C-10.13006204 32.83024194 -9.65228467 24.41030867 -9 16 C-8.34 16 -7.68 16 -7 16 C-7 11.38 -7 6.76 -7 2 C-2 0 -2 0 0 0 Z " transform="translate(68 65)" class="svgShape colorcb915b-16 selectable" data-darkreader-inline-fill="" style="--darkreader-inline-fill: var(--darkreader-background-cb915b, #8c5b2c);"></path><path fill="#4B4A47" d="M0 0 C0.66 1.32 1.32 2.64 2 4 C0.98679687 4.12117188 -0.02640625 4.24234375 -1.0703125 4.3671875 C-2.4219151 4.53613783 -3.77347542 4.70542669 -5.125 4.875 C-5.79015625 4.95363281 -6.4553125 5.03226563 -7.140625 5.11328125 C-11.30378644 5.64388026 -15.06671292 6.54186554 -19 8 C-20.20484722 13.63526965 -20.1129643 19.14536115 -20.0625 24.875 C-20.05798828 25.84953125 -20.05347656 26.8240625 -20.04882812 27.828125 C-20.03710906 30.21881434 -20.02070219 32.6093744 -20 35 C-19.01 35 -18.02 35 -17 35 C-17 44.24 -17 53.48 -17 63 C-17.33 63 -17.66 63 -18 63 C-18.08040527 62.30551758 -18.16081055 61.61103516 -18.24365234 60.89550781 C-18.61771285 57.67997487 -18.99633705 54.46499408 -19.375 51.25 C-19.50132813 50.15816406 -19.62765625 49.06632812 -19.7578125 47.94140625 C-20.39905181 42.52293412 -21.11670668 37.14259801 -22.046875 31.765625 C-22.91778695 26.6809745 -23.53429642 21.64641718 -23.875 16.5 C-23.9471875 15.72914062 -24.019375 14.95828125 -24.09375 14.1640625 C-24.32508433 10.64534559 -24.36202757 8.52650848 -22.33203125 5.57421875 C-15.92839124 1.25149358 -7.53256075 0.61742301 0 0 Z " transform="translate(32 40)" class="svgShape color4b4a47-17 selectable" data-darkreader-inline-fill="" style="--darkreader-inline-fill: var(--darkreader-background-4b4a47, #2e2e47);"></path><path fill="#E8EFF0" d="M0 0 C21.5393127 -0.44512931 21.5393127 -0.44512931 30 4 C29.6875 5.9375 29.6875 5.9375 29 8 C26.29283758 8.90238747 24.76223232 9.11851302 21.98828125 9.09765625 C20.85229492 9.09282227 20.85229492 9.09282227 19.69335938 9.08789062 C18.90767578 9.07951172 18.12199219 9.07113281 17.3125 9.0625 C16.11657227 9.05573242 16.11657227 9.05573242 14.89648438 9.04882812 C12.93095743 9.0370585 10.96546915 9.01912348 9 9 C9 6.36 9 3.72 9 1 C6.03 1 3.06 1 0 1 C0 0.67 0 0.34 0 0 Z " transform="translate(39 44)" class="svgShape colore8eff0-18 selectable" data-darkreader-inline-fill="" style="--darkreader-inline-fill: var(--darkreader-text-e8eff0, #b8c5ef);"></path><path d="M0 0 C2.0625 1.5625 2.0625 1.5625 3 4 C2.875 7.625 2.875 7.625 2 11 C-1.70415293 13.46943529 -3.62144505 13.46913089 -8 13 C-10.66266871 10.76679398 -10.95347082 9.3799883 -11.375 5.9375 C-11 3 -11 3 -10 1.125 C-6.77459888 -0.68928813 -3.59984654 -0.65859978 0 0 Z " transform="translate(298 120)" fill="#df8e1d" class="svgShape color000000-19 selectable" data-darkreader-inline-fill="" style="--darkreader-inline-fill: var(--darkreader-text-df8e1d, #e59c36);"></path><path fill="#E4C09D" d="M0 0 C3.62187387 0.55721136 7.2215131 1.2089771 10.8125 1.9375 C11.58207031 2.09089844 12.35164063 2.24429688 13.14453125 2.40234375 C13.75683594 2.59957031 14.36914062 2.79679687 15 3 C15.33 3.66 15.66 4.32 16 5 C15.01 5 14.02 5 13 5 C13 5.66 13 6.32 13 7 C18.28 7.33 23.56 7.66 29 8 C29 8.33 29 8.66 29 9 C22.4 9.33 15.8 9.66 9 10 C9 14.62 9 19.24 9 24 C6.33217444 21.33217444 6.40389337 19.39395116 5.875 15.6875 C5.70742188 14.55699219 5.53984375 13.42648438 5.3671875 12.26171875 C5.05242879 9.46572381 4.92623236 6.80843941 5 4 C3.35 4.66 1.7 5.32 0 6 C0 4.02 0 2.04 0 0 Z " transform="translate(11 55)" class="svgShape colore4c09d-20 selectable" data-darkreader-inline-fill="" style="--darkreader-inline-fill: var(--darkreader-text-e4c09d, #e0b78e);"></path><path fill="#2E2C2D" d="M0 0 C8.4 2.8 8.4 2.8 10 6 C9.91075148 8.7235195 9.76646668 11.41013311 9.5625 14.125 C9.51029297 14.87910156 9.45808594 15.63320313 9.40429688 16.41015625 C9.27454996 18.2737937 9.13792512 20.13694996 9 22 C8.67 22 8.34 22 8 22 C7.80543295 20.04235617 7.61955753 18.08384679 7.4375 16.125 C7.28087891 14.48917969 7.28087891 14.48917969 7.12109375 12.8203125 C7 10 7 10 8 8 C7.34 8 6.68 8 6 8 C5.67 7.01 5.34 6.02 5 5 C-5.32283217 3.1214634 -15.53369067 2.44637458 -26 2 C-26 1.01 -26 0.02 -26 -1 C-18.93387513 -4.53306243 -7.32071332 -1.53224232 0 0 Z " transform="translate(64 42)" class="svgShape color2e2c2d-21 selectable" data-darkreader-inline-fill="" style="--darkreader-inline-fill: var(--darkreader-text-2e2c2d, #9caee9);"></path><path fill="#EEEFEF" d="M0 0 C2.4375 0.375 2.4375 0.375 5 1 C6.51000797 4.02001593 6.55598976 6.73580204 6 10 C4.869503 12.62014105 3.58670468 15.08183153 2.19140625 17.5703125 C0.96791772 20.06542681 0.42343815 22.26468691 0 25 C-0.99 25 -1.98 25 -3 25 C-4.73442156 21.53115688 -4.48113458 17.79284016 -4 14 C-3.10546875 12.09765625 -3.10546875 12.09765625 -2 10.375 C0.26549921 6.55197009 0.35613049 4.3625985 0 0 Z " transform="translate(31 11)" class="svgShape coloreeefef-22 selectable" data-darkreader-inline-fill="" style="--darkreader-inline-fill: var(--darkreader-text-eeefef, #bbc7f0);"></path><path fill="#918578" d="M0 0 C7.875 0.875 7.875 0.875 9 2 C11.37338639 2.15971977 13.72118272 2.2592433 16.09765625 2.31640625 C16.80651474 2.33718735 17.51537323 2.35796844 18.24571228 2.37937927 C20.51787305 2.44494598 22.79015264 2.5037923 25.0625 2.5625 C26.59962183 2.60567849 28.1367315 2.64929255 29.67382812 2.69335938 C33.4490959 2.80063449 37.2244836 2.90188137 41 3 C41.495 4.98 41.495 4.98 42 7 C37.85418181 7.02931979 33.70839075 7.04690557 29.5625 7.0625 C28.39783203 7.07087891 27.23316406 7.07925781 26.03320312 7.08789062 C16.37772169 7.11508916 7.98067989 6.75555704 -1 3 C-0.67 2.01 -0.34 1.02 0 0 Z " transform="translate(12 52)" class="svgShape color918578-23 selectable" data-darkreader-inline-fill="" style="--darkreader-inline-fill: var(--darkreader-text-918578, #4869d7);"></path><path fill="#A98869" d="M0 0 C3 2 3 2 3.58422852 4.38818359 C3.68147217 5.38156738 3.77871582 6.37495117 3.87890625 7.3984375 C3.99443848 8.50904541 4.1099707 9.61965332 4.22900391 10.76391602 C4.33905762 11.95557373 4.44911133 13.14723145 4.5625 14.375 C4.68544434 15.58406006 4.80838867 16.79312012 4.93505859 18.03881836 C5.30385449 21.691344 5.65424448 25.34522867 6 29 C6.28810484 31.98345532 6.57789213 34.96672442 6.87084961 37.94970703 C7.03719345 39.65980481 7.19836853 41.37041519 7.35375977 43.08154297 C7.66518569 47.17139614 7.66518569 47.17139614 9 51 C10.88764903 51.68472665 10.88764903 51.68472665 13.0625 52.125 C13.79597656 52.29257813 14.52945312 52.46015625 15.28515625 52.6328125 C16.13400391 52.81457031 16.13400391 52.81457031 17 53 C17 53.66 17 54.32 17 55 C15.5590974 54.77042223 14.12222985 54.51543646 12.6875 54.25 C11.88699219 54.11078125 11.08648437 53.9715625 10.26171875 53.828125 C7.29224659 52.74085713 6.48831042 51.78886475 5 49 C4.51989994 46.51248155 4.20878244 44.19921605 4 41.6875 C3.9273291 40.94000488 3.8546582 40.19250977 3.77978516 39.42236328 C3.61103612 37.67223387 3.44829984 35.92151916 3.29003906 34.17041016 C2.94675285 30.41795668 2.57982098 26.66797018 2.2109375 22.91796875 C1.46137919 15.27982929 0.72716262 7.64030786 0 0 Z " transform="translate(15 77)" class="svgShape colora98869-24 selectable" data-darkreader-inline-fill="" style="--darkreader-inline-fill: var(--darkreader-background-a98869, #7c6047);"></path><path fill="#C7D2D5" d="M0 0 C2 3 2 3 4 6 C6.17897492 7.00805555 6.17897492 7.00805555 8.625 7.6875 C9.44226562 7.93886719 10.25953125 8.19023437 11.1015625 8.44921875 C11.72804688 8.63097656 12.35453125 8.81273437 13 9 C13 9.99 13 10.98 13 12 C13.66 11.67 14.32 11.34 15 11 C17.04055005 10.92934383 19.08334257 10.91578024 21.125 10.9375 C22.22070312 10.94652344 23.31640625 10.95554688 24.4453125 10.96484375 C25.28835937 10.97644531 26.13140625 10.98804688 27 11 C26.67 11.99 26.34 12.98 26 14 C23.3118751 14.08164159 20.626277 14.14079668 17.9375 14.1875 C16.80924805 14.22520508 16.80924805 14.22520508 15.65820312 14.26367188 C10.33325431 14.33282705 6.72680381 13.49131799 2 11 C-0.69726253 7.71637605 -0.15757208 4.09687407 0 0 Z " transform="translate(19 123)" class="svgShape colorc7d2d5-25 selectable" data-darkreader-inline-fill="" style="--darkreader-inline-fill: var(--darkreader-text-c7d2d5, #98aae8);"></path><path fill="#D7B18D" d="M0 0 C1.58294782 -0.05437607 3.16644256 -0.09296271 4.75 -0.125 C6.07257812 -0.15980469 6.07257812 -0.15980469 7.421875 -0.1953125 C10.1135858 0.00860498 11.69904974 0.63448279 14 2 C14 2.99 14 3.98 14 5 C12.52433205 5.4898355 11.04417897 5.9661592 9.5625 6.4375 C8.73878906 6.70433594 7.91507813 6.97117187 7.06640625 7.24609375 C-0.26499225 9.04859045 -7.67214054 9.15913487 -15.1875 9.125 C-16.05052734 9.12886719 -16.91355469 9.13273437 -17.80273438 9.13671875 C-22.31588561 9.12981263 -26.55885629 8.9158496 -31 8 C-31 7.67 -31 7.34 -31 7 C-19.78 7 -8.56 7 3 7 C2.505 4.03 2.505 4.03 2 1 C1.34 0.67 0.68 0.34 0 0 Z " transform="translate(54 58)" class="svgShape colord7b18d-26 selectable" data-darkreader-inline-fill="" style="--darkreader-inline-fill: var(--darkreader-text-d7b18d, #d5ad87);"></path><path fill="#D09A66" d="M0 0 C0.6583439 3.35690206 1.13746478 6.57395481 1 10 C-1.3125 12.6875 -1.3125 12.6875 -4 15 C-4.98273504 17.32908204 -5.46367503 19.51340242 -6 22 C-6.66 22 -7.32 22 -8 22 C-7.67 15.4 -7.34 8.8 -7 2 C-2 0 -2 0 0 0 Z " transform="translate(68 65)" class="svgShape colord09a66-27 selectable" data-darkreader-inline-fill="" style="--darkreader-inline-fill: var(--darkreader-text-d09a66, #d29d6b);"></path><path fill="#A4805D" d="M0 0 C0 0.99 0 1.98 0 3 C-1.54016694 3.4839655 -3.08222194 3.96192387 -4.625 4.4375 C-5.48351563 4.70433594 -6.34203125 4.97117187 -7.2265625 5.24609375 C-13.5751721 6.97184256 -19.6492671 7.19214569 -26.1875 7.1875 C-27.58391724 7.1884668 -27.58391724 7.1884668 -29.00854492 7.18945312 C-35.50237167 7.13955731 -41.69298251 6.65429967 -48 5 C-48 4.34 -48 3.68 -48 3 C-46.07220703 3.24169922 -46.07220703 3.24169922 -44.10546875 3.48828125 C-39.16409655 4.03388908 -34.28119493 4.19236316 -29.3125 4.1875 C-28.44616943 4.18669434 -27.57983887 4.18588867 -26.68725586 4.18505859 C-17.6114789 4.09946181 -8.41377558 3.68780587 0 0 Z " transform="translate(68 62)" class="svgShape colora4805d-28 selectable" data-darkreader-inline-fill="" style="--darkreader-inline-fill: var(--darkreader-text-a4805d, #ad8c6d);"></path><path fill="#D6AD85" d="M0 0 C0.99 0.33 1.98 0.66 3 1 C3.33 7.6 3.66 14.2 4 21 C3.01 20.34 2.02 19.68 1 19 C1 18.34 1 17.68 1 17 C0.01 17 -0.98 17 -2 17 C-3.01646891 13.95059327 -3.19844676 11.69630097 -3.25 8.5 C-3.27578125 7.5409375 -3.3015625 6.581875 -3.328125 5.59375 C-2.95389709 2.63556747 -2.30935919 1.79886927 0 0 Z " transform="translate(14 58)" class="svgShape colord6ad85-29 selectable" data-darkreader-inline-fill="" style="--darkreader-inline-fill: var(--darkreader-text-d6ad85, #d5aa81);"></path><path fill="#C5AB93" d="M0 0 C1.00999806 3.02999417 1.03004379 4.51223726 0.765625 7.62890625 C0.68747559 8.56992188 0.60932617 9.5109375 0.52880859 10.48046875 C0.39079834 12.00607422 0.39079834 12.00607422 0.25 13.5625 C0.15928223 14.60921875 0.06856445 15.6559375 -0.02490234 16.734375 C-1.10914135 28.84917779 -2.53341691 40.92640612 -4 53 C-6.72751555 49.08483142 -5.99167696 45.08178853 -5.57421875 40.578125 C-5.50717239 39.75930847 -5.44012604 38.94049194 -5.37104797 38.09686279 C-5.15396842 35.48020522 -4.92076455 32.86525914 -4.6875 30.25 C-4.54129825 28.50529346 -4.39610511 26.76050209 -4.25195312 25.015625 C-3.85926884 20.34116365 -3.45959517 15.66841126 -3 11 C-2.9327774 10.26406616 -2.86555481 9.52813232 -2.79629517 8.76989746 C-2.41766842 5.12997771 -2.06672308 3.10008463 0 0 Z " transform="translate(67 77)" class="svgShape colorc5ab93-30 selectable" data-darkreader-inline-fill="" style="--darkreader-inline-fill: var(--darkreader-background-c5ab93, #684f38);"></path><path fill="#DCB188" d="M0 0 C1.485 0.99 1.485 0.99 3 2 C3 2.66 3 3.32 3 4 C3.66 4 4.32 4 5 4 C5 11.59 5 19.18 5 27 C4.34 27 3.68 27 3 27 C1.702641 24.405282 1.68425346 22.23214561 1.46484375 19.3359375 C1.33432617 17.65371094 1.33432617 17.65371094 1.20117188 15.9375 C1.11416016 14.761875 1.02714844 13.58625 0.9375 12.375 C0.84662109 11.19164063 0.75574219 10.00828125 0.66210938 8.7890625 C0.43767767 5.85963815 0.21714035 2.92997237 0 0 Z " transform="translate(20 101)" class="svgShape colordcb188-31 selectable" data-darkreader-inline-fill="" style="--darkreader-inline-fill: var(--darkreader-text-dcb188, #daad81);"></path><path fill="#525352" d="M0 0 C0.66 1.32 1.32 2.64 2 4 C-13.74487472 6.11161731 -13.74487472 6.11161731 -21 7 C-21 7.66 -21 8.32 -21 9 C-21.66 9 -22.32 9 -23 9 C-23 10.65 -23 12.3 -23 14 C-23.33 14 -23.66 14 -24 14 C-24.49018868 8.60792453 -24.49018868 8.60792453 -22.30859375 5.90234375 C-16.38725769 1.02300253 -7.40873857 0.60727365 0 0 Z " transform="translate(32 40)" class="svgShape color525352-32 selectable" data-darkreader-inline-fill="" style="--darkreader-inline-fill: var(--darkreader-text-525352, #748de0);"></path><path fill="#9F754E" d="M0 0 C0.33 0.66 0.66 1.32 1 2 C0.01 3.485 0.01 3.485 -1 5 C-1.44006892 7.28394724 -1.44006892 7.28394724 -1.59765625 9.81640625 C-1.67693359 10.74517578 -1.75621094 11.67394531 -1.83789062 12.63085938 C-1.91201172 13.59830078 -1.98613281 14.56574219 -2.0625 15.5625 C-2.21652052 17.48075558 -2.37390744 19.39874476 -2.53515625 21.31640625 C-2.63389038 22.59173218 -2.63389038 22.59173218 -2.73461914 23.89282227 C-3 26 -3 26 -4 28 C-4.22858114 30.0374763 -4.41024278 32.08040303 -4.5625 34.125 C-4.64628906 35.22070312 -4.73007812 36.31640625 -4.81640625 37.4453125 C-4.87699219 38.28835937 -4.93757813 39.13140625 -5 40 C-5.33 40 -5.66 40 -6 40 C-6.27861659 31.79628922 -5.88506677 23.67766449 -5.25 15.5 C-5.18828613 14.54464355 -5.12657227 13.58928711 -5.06298828 12.60498047 C-4.60626 7.23533714 -4.06860753 3.90321698 0 0 Z " transform="translate(67 75)" class="svgShape color9f754e-33 selectable" data-darkreader-inline-fill="" style="--darkreader-inline-fill: var(--darkreader-text-9f754e, #b7916d);"></path><path fill="#787978" d="M0 0 C0.91007812 0.00902344 1.82015625 0.01804688 2.7578125 0.02734375 C3.45648438 0.03894531 4.15515625 0.05054688 4.875 0.0625 C5.205 1.0525 5.535 2.0425 5.875 3.0625 C7.4528125 3.0315625 7.4528125 3.0315625 9.0625 3 C12.20204904 3.05146802 14.84383396 3.32767187 17.875 4.0625 C17.875 4.3925 17.875 4.7225 17.875 5.0625 C9.625 4.7325 1.375 4.4025 -7.125 4.0625 C-7.125 3.0725 -7.125 2.0825 -7.125 1.0625 C-4.60024538 -0.19987731 -2.81299534 -0.03606404 0 0 Z " transform="translate(45.125 39.938)" class="svgShape color787978-34 selectable" data-darkreader-inline-fill="" style="--darkreader-inline-fill: var(--darkreader-text-787978, #4a6bd7);"></path><path fill="#D0965E" d="M0 0 C0.33 0 0.66 0 1 0 C1.74657562 6.91915622 2.10661409 13.79476376 2.125 20.75 C2.12951172 21.44601318 2.13402344 22.14202637 2.13867188 22.85913086 C2.12506538 27.64918399 1.6700139 32.25672699 1 37 C0.67 37 0.34 37 0 37 C-0.89735751 24.54743891 -0.96676276 12.44892967 0 0 Z " transform="translate(46 93)" class="svgShape colord0965e-35 selectable" data-darkreader-inline-fill="" style="--darkreader-inline-fill: var(--darkreader-text-d0965e, #d29b65);"></path><path fill="#C3CDD0" d="M0 0 C0.66 0 1.32 0 2 0 C2.36619718 5.49295775 2.36619718 5.49295775 0.78125 7.6875 C-1.52043454 9.38347808 -2.86106749 9.31038837 -5.6875 9.1875 C-6.89986328 9.14689453 -6.89986328 9.14689453 -8.13671875 9.10546875 C-8.75160156 9.07066406 -9.36648437 9.03585938 -10 9 C-10 8.01 -10 7.02 -10 6 C-9.36191406 5.73445312 -8.72382812 5.46890625 -8.06640625 5.1953125 C-7.24011719 4.84210938 -6.41382813 4.48890625 -5.5625 4.125 C-4.73878906 3.77695313 -3.91507813 3.42890625 -3.06640625 3.0703125 C-0.84253285 2.1755063 -0.84253285 2.1755063 0 0 Z " transform="translate(60 126)" class="svgShape colorc3cdd0-36 selectable" data-darkreader-inline-fill="" style="--darkreader-inline-fill: var(--darkreader-text-c3cdd0, #93a6e7);"></path><path fill="#E1B58B" d="M0 0 C3.625 0.375 3.625 0.375 7 1 C7 1.66 7 2.32 7 3 C9.64 2.67 12.28 2.34 15 2 C15 2.99 15 3.98 15 5 C12.91673869 5.02709444 10.83337559 5.04643873 8.75 5.0625 C7.00976562 5.07990234 7.00976562 5.07990234 5.234375 5.09765625 C2.59022872 5.01782092 0.50173909 4.78643778 -2 4 C-2 2 -2 2 0 0 Z " transform="translate(26 58)" class="svgShape colore1b58b-37 selectable" data-darkreader-inline-fill="" style="--darkreader-inline-fill: var(--darkreader-text-e1b58b, #dfaf82);"></path><path fill="#3B3E3E" d="M0 0 C0.33 0 0.66 0 1 0 C2.87517908 19.46131805 2.87517908 19.46131805 -1.625 25 C-2.07875 25.33 -2.5325 25.66 -3 26 C-3.99 25.67 -4.98 25.34 -6 25 C-5.36578125 24.38769531 -4.7315625 23.77539062 -4.078125 23.14453125 C-1.18709268 18.76994287 -1.09897019 14.83117513 -0.75 9.6875 C-0.67265625 8.75615234 -0.5953125 7.82480469 -0.515625 6.86523438 C-0.32792109 4.57759299 -0.15658841 2.28994633 0 0 Z " transform="translate(64 110)" class="svgShape color3b3e3e-38 selectable" data-darkreader-inline-fill="" style="--darkreader-inline-fill: var(--darkreader-text-3b3e3e, #8ba0e6);"></path><path fill="#494847" d="M0 0 C0.33 0 0.66 0 1 0 C2.80946273 6.15502282 3.25269614 11.60537019 3.125 18 C3.11597656 18.87011719 3.10695313 19.74023438 3.09765625 20.63671875 C3.07434619 22.7579342 3.03848579 24.87900562 3 27 C-1.22217439 19.04347639 -0.1560959 8.81074612 0 0 Z " transform="translate(15 104)" class="svgShape color494847-39 selectable" data-darkreader-inline-fill="" style="--darkreader-inline-fill: var(--darkreader-text-494847, #7f96e3);"></path><path fill="#E1C8AF" d="M0 0 C3.73487777 0.4979837 5.81237635 0.87491756 9 3 C9 3.99 9 4.98 9 6 C9.66 6.33 10.32 6.66 11 7 C10.34 7 9.68 7 9 7 C9 7.66 9 8.32 9 9 C7.68 9 6.36 9 5 9 C5 7.35 5 5.7 5 4 C3.35 4.66 1.7 5.32 0 6 C0 4.02 0 2.04 0 0 Z " transform="translate(11 55)" class="svgShape colore1c8af-40 selectable" data-darkreader-inline-fill="" style="--darkreader-inline-fill: var(--darkreader-text-e1c8af, #dbbc9e);"></path><path fill="#C98750" d="M0 0 C0.33 0 0.66 0 1 0 C1 3.63 1 7.26 1 11 C-2.63 11 -6.26 11 -10 11 C-8.68 10.34 -7.36 9.68 -6 9 C-4.27700314 6.84160689 -4.27700314 6.84160689 -2.8125 4.375 C-1.89573919 2.90354087 -0.96372393 1.44113794 0 0 Z " transform="translate(44 120)" class="svgShape colorc98750-41 selectable" data-darkreader-inline-fill="" style="--darkreader-inline-fill: var(--darkreader-text-c98750, #cd905d);"></path><path fill="#666" d="M0 0 C0.66 0.33 1.32 0.66 2 1 C1.34 6.94 0.68 12.88 0 19 C-0.66 19 -1.32 19 -2 19 C-2.19644384 17.10507254 -2.38177288 15.20899097 -2.5625 13.3125 C-2.66691406 12.25675781 -2.77132813 11.20101562 -2.87890625 10.11328125 C-2.99277552 7.18573914 -2.70848415 4.82868856 -2 2 C-1.34 2 -0.68 2 0 2 C0 1.34 0 0.68 0 0 Z " transform="translate(11 47)" class="svgShape color666666-42 selectable" data-darkreader-inline-fill="" style="--darkreader-inline-fill: var(--darkreader-text-666666, #5f7bdc);"></path><path fill="#E2BD9A" d="M0 0 C7.42857143 -0.28571429 7.42857143 -0.28571429 11 2 C11 2.99 11 3.98 11 5 C7.7 5.33 4.4 5.66 1 6 C1.66 4.35 2.32 2.7 3 1 C2.01 0.67 1.02 0.34 0 0 Z " transform="translate(57 58)" class="svgShape colore2bd9a-43 selectable" data-darkreader-inline-fill="" style="--darkreader-inline-fill: var(--darkreader-text-e2bd9a, #deb48d);"></path><path fill="#A99888" d="M0 0 C0.99 0.33 1.98 0.66 3 1 C2.67 2.98 2.34 4.96 2 7 C0.68 6.67 -0.64 6.34 -2 6 C-1.67 9.63 -1.34 13.26 -1 17 C-3.22264871 13.66602694 -3.29675463 12.40485109 -3.3125 8.5 C-3.32925781 7.5409375 -3.34601562 6.581875 -3.36328125 5.59375 C-2.95128633 2.65219489 -2.29930415 1.79576261 0 0 Z " transform="translate(14 58)" class="svgShape colora99888-44 selectable" data-darkreader-inline-fill="" style="--darkreader-inline-fill: var(--darkreader-text-a99888, #5e7bdc);"></path><path fill="#DDB893" d="M0 0 C0.33 0 0.66 0 1 0 C1.12873737 9.41213252 0.79822348 18.62087413 0 28 C-0.33 28 -0.66 28 -1 28 C-1.33 22.06 -1.66 16.12 -2 10 C-1.67 10 -1.34 10 -1 10 C-0.67 6.7 -0.34 3.4 0 0 Z " transform="translate(20 67)" class="svgShape colorddb893-45 selectable" data-darkreader-inline-fill="" style="--darkreader-inline-fill: var(--darkreader-text-ddb893, #dab289);"></path><path fill="#A09D98" d="M0 0 C1.98 0 3.96 0 6 0 C6.33 0.66 6.66 1.32 7 2 C3.28111134 2.8632601 -0.14296488 3.11721556 -3.95703125 3.09765625 C-5.06884766 3.09443359 -6.18066406 3.09121094 -7.32617188 3.08789062 C-8.47666016 3.07951172 -9.62714844 3.07113281 -10.8125 3.0625 C-12.56723633 3.05573242 -12.56723633 3.05573242 -14.35742188 3.04882812 C-17.23833358 3.0370693 -20.11914044 3.02063426 -23 3 C-23 2.67 -23 2.34 -23 2 C-15.41 2 -7.82 2 0 2 C0 1.34 0 0.68 0 0 Z " transform="translate(53 55)" class="svgShape colora09d98-46 selectable" data-darkreader-inline-fill="" style="--darkreader-inline-fill: var(--darkreader-text-a09d98, #627edc);"></path><path fill="#353636" d="M0 0 C1.32 0 2.64 0 4 0 C5.60670684 3.21341369 4.82510855 6.62958968 4.5625 10.125 C4.51029297 10.87910156 4.45808594 11.63320313 4.40429688 12.41015625 C4.27454996 14.2737937 4.13792512 16.13694996 4 18 C3.67 18 3.34 18 3 18 C2.80543295 16.04235617 2.61955753 14.08384679 2.4375 12.125 C2.33308594 11.03445312 2.22867188 9.94390625 2.12109375 8.8203125 C2 6 2 6 3 4 C2.34 4 1.68 4 1 4 C0.67 2.68 0.34 1.36 0 0 Z " transform="translate(69 46)" class="svgShape color353636-47 selectable" data-darkreader-inline-fill="" style="--darkreader-inline-fill: var(--darkreader-text-353636, #93a6e7);"></path><path fill="#C6CBCB" d="M0 0 C2 3 2 3 4 6 C4.99 6.66 5.98 7.32 7 8 C6.34 8 5.68 8 5 8 C5 9.32 5 10.64 5 12 C3.0625 11.1875 3.0625 11.1875 1 10 C-0.1577506 6.52674819 -0.06866652 3.63932552 0 0 Z " transform="translate(19 123)" class="svgShape colorc6cbcb-48 selectable" data-darkreader-inline-fill="" style="--darkreader-inline-fill: var(--darkreader-text-c6cbcb, #92a6e7);"></path><path fill="#E8C4A1" d="M0 0 C3.3 0 6.6 0 10 0 C10.33 1.98 10.66 3.96 11 6 C9.68 6 8.36 6 7 6 C7.33 4.68 7.66 3.36 8 2 C5.36 1.67 2.72 1.34 0 1 C0 0.67 0 0.34 0 0 Z " transform="translate(46 59)" class="svgShape colore8c4a1-49 selectable" data-darkreader-inline-fill="" style="--darkreader-inline-fill: var(--darkreader-text-e8c4a1, #e4b990);"></path><path fill="#E0E7E9" d="M0 0 C2.31 0.33 4.62 0.66 7 1 C7 1.99 7 2.98 7 4 C4.69 4 2.38 4 0 4 C0 2.68 0 1.36 0 0 Z " transform="translate(24 131)" class="svgShape colore0e7e9-50 selectable" data-darkreader-inline-fill="" style="--darkreader-inline-fill: var(--darkreader-text-e0e7e9, #b0beee);"></path><path fill="#A3774C" d="M0 0 C0.80824219 0.10183594 1.61648437 0.20367187 2.44921875 0.30859375 C3.06410156 0.39238281 3.67898437 0.47617188 4.3125 0.5625 C4.3125 1.2225 4.3125 1.8825 4.3125 2.5625 C0.3525 2.5625 -3.6075 2.5625 -7.6875 2.5625 C-7.6875 1.9025 -7.6875 1.2425 -7.6875 0.5625 C-4.59271121 -0.46909626 -3.16118607 -0.41232862 0 0 Z " transform="translate(41.688 80.438)" class="svgShape colora3774c-51 selectable" data-darkreader-inline-fill="" style="--darkreader-inline-fill: var(--darkreader-text-a3774c, #b9916a);"></path><path fill="#212121" d="M0 0 C-4.75 3 -4.75 3 -7 3 C-7 3.66 -7 4.32 -7 5 C-7.66 5 -8.32 5 -9 5 C-9 6.65 -9 8.3 -9 10 C-9.33 10 -9.66 10 -10 10 C-10.33074549 6.36179956 -10.48805542 4.6226914 -8.1875 1.6875 C-5.06632189 -0.72026597 -3.79790786 -1.26596929 0 0 Z " transform="translate(18 44)" class="svgShape color212121-52 selectable" data-darkreader-inline-fill="" style="--darkreader-inline-fill: var(--darkreader-text-212121, #a9b9ec);"></path><path fill="#E1EAEF" d="M0 0 C2.31 0 4.62 0 7 0 C7.33 0.99 7.66 1.98 8 3 C5.36 3 2.72 3 0 3 C0 2.01 0 1.02 0 0 Z " transform="translate(50 132)" class="svgShape colore1eaef-53 selectable" data-darkreader-inline-fill="" style="--darkreader-inline-fill: var(--darkreader-text-e1eaef, #c3d5df);"></path><path fill="#737271" d="M0 0 C0.33 0 0.66 0 1 0 C1.33 4.95 1.66 9.9 2 15 C1.01 15.33 0.02 15.66 -1 16 C-0.67 10.72 -0.34 5.44 0 0 Z " transform="translate(64 110)" class="svgShape color737271-54 selectable" data-darkreader-inline-fill="" style="--darkreader-inline-fill: var(--darkreader-text-737271, #5271d9);"></path><path fill="#AE8863" d="M0 0 C3 2 3 2 3.51171875 4.3828125 C3.56972656 5.28773437 3.62773437 6.19265625 3.6875 7.125 C3.75324219 8.03507812 3.81898437 8.94515625 3.88671875 9.8828125 C3.92410156 10.58148438 3.96148438 11.28015625 4 12 C3.67 11.01 3.34 10.02 3 9 C2.34 9 1.68 9 1 9 C0.67 6.03 0.34 3.06 0 0 Z " transform="translate(15 77)" class="svgShape colorae8863-55 selectable" data-darkreader-inline-fill="" style="--darkreader-inline-fill: var(--darkreader-text-ae8863, #b59270);"></path><path fill="#9C9F9F" d="M0 0 C2.64 0.33 5.28 0.66 8 1 C7.34 2.32 6.68 3.64 6 5 C3.69 4.34 1.38 3.68 -1 3 C-0.67 2.01 -0.34 1.02 0 0 Z " transform="translate(12 52)" class="svgShape color9c9f9f-56 selectable" data-darkreader-inline-fill="" style="--darkreader-inline-fill: var(--darkreader-text-9c9f9f, #637fdd);"></path><path fill="#A88059" d="M0 0 C3.375 0.25 3.375 0.25 7 1 C7.66 2.32 8.32 3.64 9 5 C6.03 4.01 3.06 3.02 0 2 C0 1.34 0 0.68 0 0 Z " transform="translate(21 79)" class="svgShape colora88059-57 selectable" data-darkreader-inline-fill="" style="--darkreader-inline-fill: var(--darkreader-text-a88059, #b18c69);"></path><path fill="#D5D8D9" d="M0 0 C0 1.65 0 3.3 0 5 C-3 5 -3 5 -4.6875 3.5 C-5.120625 3.005 -5.55375 2.51 -6 2 C-2.25 0 -2.25 0 0 0 Z " transform="translate(71 54)" class="svgShape colord5d8d9-58 selectable" data-darkreader-inline-fill="" style="--darkreader-inline-fill: var(--darkreader-text-d5d8d9, #a2b2ea);"></path><path fill="#A1968E" d="M0 0 C2.31 0.33 4.62 0.66 7 1 C7 2.98 7 4.96 7 7 C5.5 5.625 5.5 5.625 4 4 C4 3.34 4 2.68 4 2 C2.68 1.34 1.36 0.68 0 0 Z " transform="translate(64 58)" class="svgShape colora1968e-59 selectable" data-darkreader-inline-fill="" style="--darkreader-inline-fill: var(--darkreader-text-a1968e, #5d7adb);"></path><path fill="#D8DCDE" d="M0 0 C2.475 0.495 2.475 0.495 5 1 C4.01 1.495 4.01 1.495 3 2 C1.86649466 4.01669827 1.86649466 4.01669827 1 6 C0.67 6 0.34 6 0 6 C0 4.02 0 2.04 0 0 Z " transform="translate(11 55)" class="svgShape colord8dcde-60 selectable" data-darkreader-inline-fill="" style="--darkreader-inline-fill: var(--darkreader-text-d8dcde, #a6b6eb);"></path></svg>