<svg width="12" height="12" viewBox="0 0 12 12" fill="none" xmlns="http://www.w3.org/2000/svg">
<path d="M4.19967 0.758375C4.33317 0.638591 4.3999 0.5787 4.46128 0.530222C5.3492 -0.172128 6.59232 -0.177192 7.48593 0.517901C7.5477 0.565877 7.61492 0.625223 7.74939 0.743916C7.79441 0.783986 7.81691 0.803644 7.83949 0.822919C8.15603 1.08935 8.53309 1.27198 8.93651 1.3535C8.96534 1.35946 8.99472 1.36466 9.05353 1.37505C9.22919 1.40624 9.31701 1.42145 9.39268 1.44013C10.4873 1.70681 11.2663 2.69022 11.2883 3.83241C11.2898 3.91139 11.286 4.00178 11.2782 4.18257C11.2757 4.24334 11.2743 4.27334 11.2738 4.30334C11.2657 4.72072 11.3603 5.1335 11.5491 5.5045C11.5626 5.53103 11.5769 5.55756 11.6055 5.61099C11.6911 5.76975 11.7338 5.84894 11.7668 5.92058C12.2437 6.95534 11.9722 8.18683 11.1059 8.91605C11.0461 8.9668 10.974 9.01988 10.8299 9.12642C10.7817 9.16231 10.7576 9.17987 10.7343 9.1982C10.4077 9.45206 10.1486 9.78464 9.98053 10.1655C9.96853 10.1929 9.95698 10.2206 9.93388 10.2765C9.86492 10.4435 9.83042 10.5268 9.79587 10.5976C9.29608 11.6212 8.1783 12.1733 7.0762 11.9408C7 11.9244 6.91403 11.9005 6.74208 11.8526C6.68449 11.8369 6.65573 11.8286 6.62724 11.8215C6.22805 11.7206 5.81038 11.7223 5.41203 11.8265C5.38359 11.8338 5.3549 11.8423 5.29744 11.8585C5.12589 11.9078 5.04012 11.9324 4.96406 11.9494C3.86388 12.1909 2.74165 11.6479 2.23353 10.6284C2.1984 10.5579 2.16324 10.4749 2.09291 10.3085C2.06936 10.2528 2.05759 10.2251 2.04538 10.1978C1.87421 9.81834 1.61244 9.48788 1.28379 9.23669C1.26034 9.21856 1.23607 9.20119 1.18754 9.1657C1.04258 9.06034 0.970115 9.00785 0.909816 8.95759C0.0377023 8.23544 -0.243925 7.00621 0.22458 5.96759C0.256969 5.89569 0.299095 5.81615 0.38335 5.6567C0.411557 5.60304 0.425665 5.5764 0.438914 5.54976C0.624643 5.17723 0.715903 4.76369 0.704424 4.3464C0.703604 4.3164 0.702068 4.28641 0.698985 4.22566C0.689782 4.04494 0.68518 3.95459 0.686058 3.8756C0.698742 2.73327 1.46978 1.74354 2.56211 1.46795C2.63763 1.44866 2.72533 1.43273 2.90071 1.40012C2.95944 1.38924 2.9888 1.38381 3.01754 1.37761C3.4203 1.29281 3.79586 1.10711 4.11022 0.83811C4.13264 0.818651 4.15498 0.79881 4.19967 0.758375Z" fill="#1F1F1F"/>
</svg>
