<svg xmlns="http://www.w3.org/2000/svg" width="12" height="12" viewBox="0 0 12 12" fill="none">
<path d="M4.19959 0.75839C4.33309 0.638606 4.39982 0.578715 4.4612 0.530237C5.34912 -0.172113 6.59224 -0.177177 7.48585 0.517916C7.54762 0.565892 7.61484 0.625238 7.74931 0.743931C7.79433 0.784001 7.81683 0.803659 7.83941 0.822934C8.15595 1.08937 8.53301 1.272 8.93643 1.35352C8.96526 1.35948 8.99464 1.36468 9.05345 1.37507C9.22911 1.40626 9.31693 1.42147 9.3926 1.44015C10.4872 1.70683 11.2662 2.69023 11.2882 3.83242C11.2897 3.9114 11.2859 4.0018 11.2781 4.18259C11.2756 4.24336 11.2742 4.27336 11.2737 4.30336C11.2656 4.72074 11.3602 5.13352 11.549 5.50452C11.5625 5.53105 11.5768 5.55758 11.6054 5.61101C11.691 5.76977 11.7337 5.84896 11.7667 5.9206C12.2436 6.95536 11.9721 8.18685 11.1058 8.91607C11.046 8.96682 10.9739 9.0199 10.8298 9.12644C10.7816 9.16233 10.7575 9.17989 10.7342 9.19822C10.4076 9.45208 10.1485 9.78466 9.98045 10.1655C9.96845 10.1929 9.9569 10.2206 9.9338 10.2765C9.86484 10.4435 9.83034 10.5268 9.79579 10.5976C9.296 11.6212 8.17822 12.1733 7.07612 11.9408C6.99992 11.9244 6.91395 11.9005 6.742 11.8526C6.68441 11.8369 6.65565 11.8286 6.62716 11.8215C6.22797 11.7206 5.8103 11.7223 5.41195 11.8265C5.38351 11.8338 5.35482 11.8423 5.29736 11.8585C5.12581 11.9078 5.04004 11.9324 4.96398 11.9494C3.8638 12.1909 2.74157 11.6479 2.23345 10.6284C2.19832 10.5579 2.16316 10.4749 2.09283 10.3085C2.06928 10.2528 2.05751 10.2251 2.0453 10.1978C1.87413 9.81836 1.61236 9.4879 1.28371 9.23671C1.26026 9.21858 1.23599 9.20121 1.18746 9.16572C1.0425 9.06036 0.970032 9.00787 0.909733 8.95761C0.0376195 8.23546 -0.244008 7.00623 0.224497 5.96761C0.256886 5.89571 0.299012 5.81617 0.383267 5.65672C0.411474 5.60306 0.425582 5.57642 0.438831 5.54978C0.62456 5.17725 0.71582 4.76371 0.704341 4.34642C0.703521 4.31642 0.701985 4.28643 0.698902 4.22568C0.689699 4.04496 0.685097 3.9546 0.685975 3.87561C0.698659 2.73328 1.4697 1.74356 2.56203 1.46797C2.63755 1.44868 2.72525 1.43275 2.90063 1.40014C2.95936 1.38926 2.98872 1.38383 3.01746 1.37763C3.42022 1.29283 3.79578 1.10713 4.11014 0.838125C4.13256 0.818666 4.1549 0.798825 4.19959 0.75839Z" fill="#fff7ff"/>
</svg>