<svg width="12" height="12" viewBox="0 0 12 12" fill="none" xmlns="http://www.w3.org/2000/svg">
<path d="M4.19983 0.75839C4.33333 0.638606 4.40007 0.578715 4.46144 0.530237C5.34937 -0.172113 6.59248 -0.177177 7.4861 0.517916C7.54787 0.565892 7.61509 0.625238 7.74956 0.743931C7.79457 0.784 7.81708 0.803659 7.83966 0.822934C8.15619 1.08937 8.53325 1.272 8.93668 1.35352C8.9655 1.35948 8.99488 1.36468 9.05369 1.37507C9.22936 1.40626 9.31717 1.42147 9.39285 1.44015C10.4874 1.70683 11.2665 2.69023 11.2884 3.83242C11.29 3.9114 11.2861 4.0018 11.2784 4.18259C11.2758 4.24336 11.2745 4.27336 11.2739 4.30336C11.2659 4.72074 11.3605 5.13352 11.5492 5.50452C11.5627 5.53105 11.577 5.55758 11.6057 5.61101C11.6912 5.76977 11.734 5.84896 11.7669 5.9206C12.2439 6.95536 11.9723 8.18685 11.1061 8.91607C11.0462 8.96682 10.9742 9.0199 10.8301 9.12644C10.7819 9.16233 10.7577 9.17989 10.7344 9.19822C10.4078 9.45208 10.1488 9.78466 9.98069 10.1655C9.96869 10.1929 9.95714 10.2206 9.93404 10.2765C9.86509 10.4435 9.83059 10.5268 9.79604 10.5976C9.29624 11.6212 8.17847 12.1733 7.07636 11.9408C7.00017 11.9244 6.91419 11.9005 6.74225 11.8526C6.68466 11.8369 6.6559 11.8286 6.62741 11.8215C6.22822 11.7206 5.81055 11.7223 5.41219 11.8265C5.38376 11.8338 5.35507 11.8423 5.29761 11.8585C5.12606 11.9078 5.04028 11.9324 4.96423 11.9494C3.86405 12.1909 2.74182 11.6479 2.23369 10.6284C2.19856 10.5579 2.1634 10.4749 2.09308 10.3085C2.06953 10.2528 2.05776 10.2251 2.04554 10.1978C1.87437 9.81836 1.61261 9.4879 1.28395 9.23671C1.2605 9.21858 1.23624 9.20121 1.1877 9.16572C1.04275 9.06036 0.970276 9.00787 0.909977 8.95761C0.0378636 8.23546 -0.243764 7.00623 0.224741 5.96761C0.25713 5.89571 0.299256 5.81617 0.383512 5.65672C0.411718 5.60306 0.425826 5.57642 0.439075 5.54978C0.624804 5.17725 0.716065 4.76371 0.704585 4.34642C0.703765 4.31642 0.702229 4.28643 0.699147 4.22568C0.689943 4.04496 0.685341 3.9546 0.686219 3.87561C0.698903 2.73328 1.46994 1.74356 2.56228 1.46797C2.6378 1.44868 2.72549 1.43275 2.90088 1.40014C2.9596 1.38926 2.98896 1.38383 3.0177 1.37763C3.42047 1.29283 3.79603 1.10713 4.11038 0.838125C4.1328 0.818666 4.15515 0.798825 4.19983 0.75839Z" fill="#FFCA67"/>
</svg>
